<svg width="6" height="12" viewBox="0 0 6 12" fill="none" xmlns="http://www.w3.org/2000/svg">
<path d="M1.80944 6.00196L5.77995 10.539C5.9221 10.7087 6 10.923 6 11.1445C6 11.3659 5.9221 11.5802 5.77995 11.75C5.71511 11.8278 5.63394 11.8905 5.54218 11.9335C5.45043 11.9765 5.35034 11.9988 5.24902 11.9988C5.14769 11.9988 5.0476 11.9765 4.95585 11.9335C4.86409 11.8905 4.78292 11.8278 4.71808 11.75L0.218632 6.60896C0.0812091 6.44356 0.00416193 6.23632 0.000163983 6.02131C-0.00383396 5.80631 0.0654541 5.59634 0.196633 5.42596L4.71508 0.249956C4.77972 0.171768 4.86083 0.108821 4.95261 0.0656128C5.04439 0.0224042 5.14458 0 5.24602 0C5.34746 0 5.44764 0.0224042 5.53942 0.0656128C5.6312 0.108821 5.71231 0.171768 5.77695 0.249956C5.9191 0.419694 5.997 0.634045 5.997 0.855455C5.997 1.07687 5.9191 1.29122 5.77695 1.46096L1.80944 6.00196Z" fill="#66AF8F"/>
</svg>
