<svg width="10" height="12" viewBox="0 0 10 12" fill="none" xmlns="http://www.w3.org/2000/svg">
<path d="M9.45832 1.79005V10.2101C9.4588 10.5425 9.36514 10.8682 9.18816 11.1496C9.01119 11.431 8.75815 11.6565 8.45832 11.8001C8.10258 11.9681 7.70679 12.0328 7.31605 11.9868C6.92532 11.9409 6.55535 11.7861 6.24832 11.5401L1.14832 7.33005C0.957693 7.16484 0.804807 6.96057 0.700026 6.7311C0.595244 6.50163 0.541016 6.25232 0.541016 6.00005C0.541016 5.74779 0.595244 5.49848 0.700026 5.26901C0.804807 5.03953 0.957693 4.83527 1.14832 4.67005L6.24832 0.460052C6.55535 0.214046 6.92532 0.0592374 7.31605 0.0132685C7.70679 -0.0327004 8.10258 0.0320206 8.45832 0.200053C8.75815 0.343595 9.01119 0.569111 9.18816 0.850499C9.36514 1.13189 9.4588 1.45764 9.45832 1.79005Z" fill="#FEFEFE"/>
</svg>
