<svg width="16" height="12" viewBox="0 0 16 12" fill="none" xmlns="http://www.w3.org/2000/svg">
<path d="M10.2036 0.868601C10.0678 1.0038 9.99097 1.18723 9.98985 1.37886C9.98872 1.5705 10.0634 1.75481 10.1976 1.8916L13.5766 5.2766H0.71664C0.525022 5.2766 0.341251 5.35272 0.205756 5.48822C0.0702612 5.62371 -0.00585938 5.80748 -0.00585938 5.9991C-0.00585938 6.19072 0.0702612 6.37449 0.205756 6.50999C0.341251 6.64548 0.525022 6.7216 0.71664 6.7216H13.5706L10.1916 10.1066C10.0586 10.244 9.98475 10.4281 9.98587 10.6193C9.98699 10.8106 10.063 10.9938 10.1976 11.1296C10.3334 11.2635 10.5167 11.338 10.7074 11.3369C10.898 11.3357 11.0805 11.259 11.2146 11.1236L15.7936 6.5126C15.8562 6.44562 15.9069 6.36853 15.9436 6.2846C15.9814 6.19681 16.0004 6.10214 15.9996 6.0066C15.9997 5.8175 15.9258 5.63589 15.7936 5.5006L11.2146 0.8856C11.1499 0.817265 11.0721 0.762538 10.9859 0.72462C10.8997 0.686702 10.8069 0.666356 10.7127 0.664773C10.6186 0.66319 10.5251 0.680402 10.4376 0.715401C10.3502 0.750399 10.2707 0.802482 10.2036 0.868601Z" fill="#66AF8F"/>
</svg>
