<svg width="6" height="12" viewBox="0 0 6 12" fill="none" xmlns="http://www.w3.org/2000/svg">
<path d="M1.8099 6.00244L5.7809 10.5394C5.92307 10.7092 6.00098 10.9235 6.00098 11.1449C6.00098 11.3664 5.92307 11.5807 5.7809 11.7504C5.71605 11.8283 5.63487 11.891 5.5431 11.934C5.45134 11.977 5.35124 11.9993 5.2499 11.9993C5.14856 11.9993 5.04846 11.977 4.9567 11.934C4.86493 11.891 4.78375 11.8283 4.7189 11.7504L0.218901 6.60944C0.0814613 6.44405 0.0044047 6.23681 0.000406265 6.0218C-0.00359217 5.8068 0.0657044 5.59683 0.196899 5.42644L4.7159 0.250444C4.78055 0.172256 4.86166 0.10931 4.95346 0.0661011C5.04525 0.0228925 5.14545 0.000488281 5.2469 0.000488281C5.34835 0.000488281 5.44855 0.0228925 5.54034 0.0661011C5.63214 0.10931 5.71325 0.172256 5.7779 0.250444C5.92007 0.420182 5.99798 0.634533 5.99798 0.855944C5.99798 1.07735 5.92007 1.29171 5.7779 1.46144L1.8099 6.00244Z" fill="#4B4B4B"/>
</svg>
